<?xml version="1.0" encoding="utf-8"?>
<!-- Generator: Adobe Illustrator 26.0.3, SVG Export Plug-In . SVG Version: 6.00 Build 0)  -->
<svg version="1.1" id="Layer_2" xmlns="http://www.w3.org/2000/svg" xmlns:xlink="http://www.w3.org/1999/xlink" x="0px" y="0px"
	 viewBox="0 0 792 612" style="enable-background:new 0 0 792 612;" xml:space="preserve">
<g id="_x38_0-mark-white">
	<path id="mark_28_" d="M296.59,52L134,146.13v215.16C134,460.32,213.46,541,312.49,541c33.01,0,63.57-8.56,90.46-23.23
		l132.03-75.79C587.55,413.86,623,360.07,623,296.5V71.56l-31.78-18.34l-139.37,74.57v234.72c0,9.78-1.22,19.56-2.45,29.34
		c-2.45,9.78-4.89,18.34-8.56,26.9l-3.67,7.33c-4.89,0-35.45-11-51.35-22c-7.34-4.89-13.45-9.78-19.56-15.89
		c-6.11-6.11-11-12.23-15.89-19.56c-4.89-7.33-8.56-14.67-12.22-22c-3.67-7.34-6.11-15.89-7.34-24.45
		c-1.22-8.56-1.22-17.11-1.22-25.67V71.56L296.59,52z M376.05,494.55c-8.56,3.67-20.78,8.56-30.56,11s-18.34,2.45-28.12,2.45
		s-19.56-1.22-29.34-3.67s-18.34-4.89-26.89-8.56c-8.56-3.67-17.11-8.56-24.45-13.45c-22-13.45-33.01-25.67-41.56-39.12
		c-4.89-7.34-9.78-15.89-13.45-24.45c-3.67-8.56-6.11-18.34-8.56-28.12c-2.44-9.78-2.44-19.56-2.44-29.34V164.47L292.92,89.9v206.6
		c0,78.24,57.46,144.26,130.81,160.15c-2.45,3.67-4.89,7.33-8.56,9.78C401.73,479.87,390.73,488.43,376.05,494.55L376.05,494.55z
		 M583.88,323.4c-1.22,8.56-4.89,17.11-7.34,24.45c-3.67,7.34-7.33,14.67-12.22,22.01s-19.56,25.67-39.12,36.67
		c-19.56,11-37.9,14.67-48.9,17.11c7.34-19.56,12.23-39.12,12.23-61.12V146.13l97.8-56.23v206.6
		C586.33,306.28,586.33,314.84,583.88,323.4z"/>
</g>
</svg>
